<svg width="19" height="20" viewBox="0 0 19 20" fill="none" xmlns="http://www.w3.org/2000/svg">
<path d="M7.07186 12.2773C7.70207 12.9076 8.46119 13.2227 9.34921 13.2227C10.2372 13.2227 10.9963 12.9076 11.6266 12.2773C12.2568 11.6471 12.5719 10.888 12.5719 10C12.5719 9.11198 12.2568 8.35286 11.6266 7.72266C10.9963 7.09245 10.2372 6.77734 9.34921 6.77734C8.46119 6.77734 7.70207 7.09245 7.07186 7.72266C6.44165 8.35286 6.12655 9.11198 6.12655 10C6.12655 10.888 6.44165 11.6471 7.07186 12.2773ZM16.1812 10.9023L18.1148 12.4062C18.3154 12.5495 18.344 12.75 18.2008 13.0078L16.3531 16.1875C16.2385 16.388 16.0523 16.4453 15.7945 16.3594L13.5172 15.457C12.9156 15.8867 12.4 16.1875 11.9703 16.3594L11.6266 18.7656C11.5693 19.0234 11.426 19.1523 11.1969 19.1523H7.50155C7.27238 19.1523 7.12915 19.0234 7.07186 18.7656L6.72811 16.3594C6.18384 16.1302 5.66822 15.8294 5.18124 15.457L2.90389 16.3594C2.64608 16.4453 2.45988 16.388 2.3453 16.1875L0.497644 13.0078C0.354415 12.75 0.383061 12.5495 0.583582 12.4062L2.51718 10.9023C2.48853 10.7018 2.47421 10.401 2.47421 10C2.47421 9.59896 2.48853 9.29818 2.51718 9.09766L0.583582 7.59375C0.383061 7.45052 0.354415 7.25 0.497644 6.99219L2.3453 3.8125C2.45988 3.61198 2.64608 3.55469 2.90389 3.64062L5.18124 4.54297C5.7828 4.11328 6.29843 3.8125 6.72811 3.64062L7.07186 1.23438C7.12915 0.976562 7.27238 0.847656 7.50155 0.847656H11.1969C11.426 0.847656 11.5693 0.976562 11.6266 1.23438L11.9703 3.64062C12.5146 3.86979 13.0302 4.17057 13.5172 4.54297L15.7945 3.64062C16.0523 3.55469 16.2385 3.61198 16.3531 3.8125L18.2008 6.99219C18.344 7.25 18.3154 7.45052 18.1148 7.59375L16.1812 9.09766C16.2099 9.29818 16.2242 9.59896 16.2242 10C16.2242 10.401 16.2099 10.7018 16.1812 10.9023Z" fill="black"/>
</svg>
